<?xml version="1.0" encoding="UTF-8"?>
<svg id="Camada_1" data-name="Camada 1" xmlns="http://www.w3.org/2000/svg" xmlns:xlink="http://www.w3.org/1999/xlink" viewBox="0 0 1039.84 378.2">
  <defs>
    <style>
      .cls-1 {
        fill: url(#Gradiente_sem_nome_3-7);
      }

      .cls-1, .cls-2, .cls-3, .cls-4, .cls-5, .cls-6, .cls-7, .cls-8, .cls-9, .cls-10, .cls-11, .cls-12, .cls-13, .cls-14, .cls-15, .cls-16, .cls-17, .cls-18, .cls-19, .cls-20, .cls-21, .cls-22, .cls-23, .cls-24 {
        stroke-width: 0px;
      }

      .cls-2 {
        fill: url(#Gradiente_sem_nome_24-4);
      }

      .cls-3 {
        fill: url(#Gradiente_sem_nome_24-3);
      }

      .cls-4 {
        fill: url(#Gradiente_sem_nome_24-10);
      }

      .cls-5 {
        fill: url(#Gradiente_sem_nome_24);
      }

      .cls-6 {
        fill: url(#Gradiente_sem_nome_3-11);
      }

      .cls-7 {
        fill: url(#Gradiente_sem_nome_3-3);
      }

      .cls-8 {
        fill: url(#Gradiente_sem_nome_24-9);
      }

      .cls-9 {
        fill: url(#Gradiente_sem_nome_3-2);
      }

      .cls-10 {
        fill: url(#Gradiente_sem_nome_3-4);
      }

      .cls-11 {
        fill: url(#Gradiente_sem_nome_3-8);
      }

      .cls-12 {
        fill: url(#Gradiente_sem_nome_3-12);
      }

      .cls-13 {
        fill: url(#Gradiente_sem_nome_3-9);
      }

      .cls-14 {
        fill: url(#Gradiente_sem_nome_24-11);
      }

      .cls-15 {
        fill: url(#Gradiente_sem_nome_3-5);
      }

      .cls-16 {
        fill: url(#Gradiente_sem_nome_24-6);
      }

      .cls-17 {
        fill: url(#Gradiente_sem_nome_3-10);
      }

      .cls-18 {
        fill: url(#Gradiente_sem_nome_24-5);
      }

      .cls-19 {
        fill: url(#Gradiente_sem_nome_24-2);
      }

      .cls-20 {
        fill: url(#Gradiente_sem_nome_7);
      }

      .cls-21 {
        fill: url(#Gradiente_sem_nome_24-8);
      }

      .cls-22 {
        fill: url(#Gradiente_sem_nome_3-6);
      }

      .cls-23 {
        fill: url(#Gradiente_sem_nome_3);
      }

      .cls-24 {
        fill: url(#Gradiente_sem_nome_24-7);
      }
    </style>
    <linearGradient id="Gradiente_sem_nome_3" data-name="Gradiente sem nome 3" x1="252.43" y1="8.07" x2="252.49" y2="8.07" gradientUnits="userSpaceOnUse">
      <stop offset="0" stop-color="#7a501e"/>
      <stop offset=".35" stop-color="#a3702a"/>
      <stop offset=".59" stop-color="#c49543"/>
      <stop offset=".65" stop-color="#cc9f49"/>
      <stop offset=".8" stop-color="#8c5d21"/>
      <stop offset=".91" stop-color="#7a501e"/>
    </linearGradient>
    <linearGradient id="Gradiente_sem_nome_3-2" data-name="Gradiente sem nome 3" x1="118.9" y1="181.13" x2="337" y2="181.13" xlink:href="#Gradiente_sem_nome_3"/>
    <linearGradient id="Gradiente_sem_nome_3-3" data-name="Gradiente sem nome 3" x1="297.26" y1="49.75" x2="297.41" y2="49.75" xlink:href="#Gradiente_sem_nome_3"/>
    <linearGradient id="Gradiente_sem_nome_3-4" data-name="Gradiente sem nome 3" x1="252.45" y1="8" x2="252.63" y2="8" xlink:href="#Gradiente_sem_nome_3"/>
    <linearGradient id="Gradiente_sem_nome_3-5" data-name="Gradiente sem nome 3" x1=".84" y1="209.74" x2="209.02" y2="209.74" xlink:href="#Gradiente_sem_nome_3"/>
    <linearGradient id="Gradiente_sem_nome_3-6" data-name="Gradiente sem nome 3" x1="320.08" y1="328.13" x2="320.08" y2="163.97" xlink:href="#Gradiente_sem_nome_3"/>
    <linearGradient id="Gradiente_sem_nome_3-7" data-name="Gradiente sem nome 3" x1="472.09" y1="332.24" x2="472.09" y2="193.32" xlink:href="#Gradiente_sem_nome_3"/>
    <linearGradient id="Gradiente_sem_nome_3-8" data-name="Gradiente sem nome 3" x1="604.66" y1="332.24" x2="604.66" y2="193.32" xlink:href="#Gradiente_sem_nome_3"/>
    <linearGradient id="Gradiente_sem_nome_3-9" data-name="Gradiente sem nome 3" x1="719.89" y1="332.24" x2="719.89" y2="177.1" xlink:href="#Gradiente_sem_nome_3"/>
    <linearGradient id="Gradiente_sem_nome_3-10" data-name="Gradiente sem nome 3" x1="841.86" y1="332.24" x2="841.86" y2="193.32" xlink:href="#Gradiente_sem_nome_3"/>
    <linearGradient id="Gradiente_sem_nome_3-11" data-name="Gradiente sem nome 3" x1="983.18" y1="332.24" x2="983.18" y2="193.32" xlink:href="#Gradiente_sem_nome_3"/>
    <linearGradient id="Gradiente_sem_nome_3-12" data-name="Gradiente sem nome 3" x1="302.58" y1="365.27" x2="994.94" y2="365.27" xlink:href="#Gradiente_sem_nome_3"/>
    <linearGradient id="Gradiente_sem_nome_24" data-name="Gradiente sem nome 24" x1="251.59" y1="6.99" x2="251.65" y2="6.99" gradientUnits="userSpaceOnUse">
      <stop offset=".01" stop-color="#9b6c2b"/>
      <stop offset=".2" stop-color="#a3702a"/>
      <stop offset=".47" stop-color="#dfb455"/>
      <stop offset=".62" stop-color="#f3e4a4"/>
      <stop offset=".72" stop-color="#eac675"/>
      <stop offset=".79" stop-color="#cc9f49"/>
      <stop offset="1" stop-color="#8c5d21"/>
    </linearGradient>
    <linearGradient id="Gradiente_sem_nome_24-2" data-name="Gradiente sem nome 24" x1="118.06" y1="180.05" x2="336.16" y2="180.05" xlink:href="#Gradiente_sem_nome_24"/>
    <linearGradient id="Gradiente_sem_nome_24-3" data-name="Gradiente sem nome 24" x1="296.42" y1="48.67" x2="296.57" y2="48.67" xlink:href="#Gradiente_sem_nome_24"/>
    <linearGradient id="Gradiente_sem_nome_24-4" data-name="Gradiente sem nome 24" x1="251.61" y1="6.92" x2="251.79" y2="6.92" xlink:href="#Gradiente_sem_nome_24"/>
    <linearGradient id="Gradiente_sem_nome_24-5" data-name="Gradiente sem nome 24" x1="0" y1="208.66" x2="208.18" y2="208.66" xlink:href="#Gradiente_sem_nome_24"/>
    <linearGradient id="Gradiente_sem_nome_24-6" data-name="Gradiente sem nome 24" x1="319.24" y1="327.05" x2="319.24" y2="162.89" xlink:href="#Gradiente_sem_nome_24"/>
    <linearGradient id="Gradiente_sem_nome_24-7" data-name="Gradiente sem nome 24" x1="471.25" y1="331.16" x2="471.25" y2="192.24" xlink:href="#Gradiente_sem_nome_24"/>
    <linearGradient id="Gradiente_sem_nome_24-8" data-name="Gradiente sem nome 24" x1="603.82" y1="331.16" x2="603.82" y2="192.24" xlink:href="#Gradiente_sem_nome_24"/>
    <linearGradient id="Gradiente_sem_nome_24-9" data-name="Gradiente sem nome 24" x1="719.05" y1="331.16" x2="719.05" y2="176.02" xlink:href="#Gradiente_sem_nome_24"/>
    <linearGradient id="Gradiente_sem_nome_24-10" data-name="Gradiente sem nome 24" x1="841.02" y1="331.16" x2="841.02" y2="192.24" xlink:href="#Gradiente_sem_nome_24"/>
    <linearGradient id="Gradiente_sem_nome_24-11" data-name="Gradiente sem nome 24" x1="982.34" y1="331.16" x2="982.34" y2="192.24" xlink:href="#Gradiente_sem_nome_24"/>
    <linearGradient id="Gradiente_sem_nome_7" data-name="Gradiente sem nome 7" x1="301.74" y1="364.19" x2="994.1" y2="364.19" gradientUnits="userSpaceOnUse">
      <stop offset=".01" stop-color="#9b6c2b"/>
      <stop offset=".14" stop-color="#e6c06a"/>
      <stop offset=".35" stop-color="#a3702a"/>
      <stop offset=".47" stop-color="#dfb455"/>
      <stop offset=".72" stop-color="#eac675"/>
      <stop offset=".79" stop-color="#cc9f49"/>
      <stop offset="1" stop-color="#8c5d21"/>
    </linearGradient>
  </defs>
  <g>
    <g>
      <path class="cls-23" d="M252.45,8.03s-.02.05-.03.08c.02-.01.05-.03.07-.04l-.04-.04Z"/>
      <path class="cls-9" d="M318.54,112.66c1.85-2.36,4.51-3.39,7.7-6.3-3.52,1.58-7.69,3.15-10.96,4.62.35-5.99,4.03-9.21,7.5-13.03-5.75,1.63-7.88,6.45-10.02,11.29-.57,1.29-.52,2.98-2.5,3.34-3.98.73-7.91,2.09-11.91,2.32-16.33.94-32.1-1.89-47.31-7.87-.58-.23-6.13-2.34-9.22-4.45,34.36.86,57.53-9.82,57.53-9.82h-.01c3.74-1.56,7.21-3.78,10.59-6.09,4.47-3.05,7.85-6.82,12.93-8.49,3.37-1.1,6.59-2.62,9.44-4.72,2.51-1.85,4.64-4.03,4.7-6.13,0,0-7.98,7.15-13.34,7.26.33-1.73,3.88-7.36,3.79-7.46-2.14.79-5.25,6.41-7.81,6.9-1.53-4.99.8-11.2,4.49-14.99,0,0-7,4.46-7.7,11.45-.5,4.66-.04,7.46-.04,7.46,0,0-5.56,4.94-9.6,7.37-.99.6-1.96,1.23-2.93,1.86-2.94,1.9-6.11,3.34-9.27,4.82-26.95,8.07-46.03,8.17-54.49,7.61,6.44-.89,16.6-4.95,18.33-5.73.25-.11.52-.24.82-.38,12.21-5.67,22.73-13.69,32.09-23.28,1.57-1.61,2.99-2.7,5.5-2.72,2.81-.03,9.19-3.74,10.64-6.67-3.04,1.44-7.53,4.44-9.67,3.28-.1-1.3,3.95-7.83,3.95-7.83,0,0-5.94,5.53-7.59,5.14-1.27-4.5,1.51-8.84,3.08-11.58-3.98,3.18-5.61,7.52-5.18,12.42.22,2.54-.6,3.94-2.33,5.47-10.51,9.32-21.55,17.85-34.32,23.96-.43.21-11.29,4.13-16.92,6.18,4.91-4.18,11.15-10.1,11.7-10.58,2.12-1.88,4.43-3.58,6.39-5.61,11.46-11.89,21.2-25.04,28.13-40.1,1.07-2.32,2.51-3.51,4.83-4.36,3.65-1.33,9.25-4.57,10.34-9.1-2.49,2.45-6.53,5.65-10.55,5.4.93-3.62,3.07-10.27,3.07-10.27-1.75,1.25-3.88,7.26-6.5,8.95-2.31-3.13-1.93-8.69-2.22-12.79-2.14,4.42-1.73,10.57,0,14.19.8,1.68.79,2.92-.17,4.52-6.52,10.83-13.57,21.28-21.51,31.13-4.42,5.48-9.04,10.75-13.99,15.75-.5.5-9.04,7.8-13.29,12.71.64-3.51,1.52-8.82,3.11-14.61,4.11-11.71,8.12-20.65,14.24-31.45,1.6-2.82,3.45-5.23,7.57-5.77,4.74-.63,8.75-3.63,10.9-8.32,0,0-6.6,4.99-11.29,4.59,1.29-2.98,3.23-5.33,4.44-8.28-2.31,2.49-5.82,5.98-6.72,5.71-.96-.29-1.12-1.37-1.3-2.31-.53-2.76.9-7.94.85-8-2.67,2.88-3.79,6.22-2.51,10.08.87,2.63.53,4.78-1.32,7.06-3.85,4.75-6.68,10.2-9.5,15.61-4.44,8.54-7.29,17.67-9.52,27.01-.5,2.28-.81,4.25-1,5.94-.38-7.83-1.9-22.88-2.07-27.19-.54-13.45,1.82-25.89,4.06-39.11.78-4.61,2.3-8.58,7.67-10.64,4.37-1.67,8.42-4.86,10.06-9.9-4.61,2.45-8.14,6.88-13.88,7.82-.12-3.9,2.4-6.92,2.51-11.51-2.53,4.99-4.59,9.06-6.78,13.39-3.24-5.42-3.49-11.05-3.58-16.72-2.31,6.2-1.8,12.23,1.1,18.03.93,1.85,1.02,3.46.42,5.39-2.1,6.75-3.04,14.02-3.75,21.15-1.26,12.53-1.36,24.39.54,36.75.1.68.55,6.24,1.25,10.91-2.88-4.84-6.05-9.62-6.32-10.08-9.72-16.6-14.74-34.51-15.45-53.7-.09-2.34.56-4.01,2.32-5.69,3.32-3.17,5.6-7.07,6.81-12.39-3.39,2.87-4.74,6.54-8.6,8.92v-10.68c-1.97,2.23-2.81,4.6-3.01,7.21-.07.9-.18,2.14-1.28,2.23-.58.05-1.34-.79-1.84-1.38-2.26-2.68-3.66-5.9-5.58-9.83-.4,6.07,1.53,10.45,5.02,13.93,2.28,2.27,2.84,4.59,2.71,7.6-.87,20.6,5.11,39.27,15.89,56.65,1.08,1.74,7.91,11.75,11.61,15.89-3.27,2.4-6.76,4.51-9.88,7.09-19.4,16-34.68,35.52-47.52,56.96-25.23,42.14-39.25,88.31-48.3,136.22-.55,2.9.28,6.92-1.99,8.5-5.67,3.94-5.37,9.63-5.95,14.12-.07,6.43.65,11.72,1.66,16.89,1.06,5.43,1.67,11.03,3.92,16.18.61,1.4,1.2,3.48,3.12,3.19,1.71-.25,2.23-2.21,2.78-3.75.18-.5.14-1.08.26-1.61,1.08-4.91.99-10.05,2.16-14.86,1.63-6.7,2.21-13.36,1.9-20.16-.15-3.33-.87-6.54-3.65-8.76-1.51-1.21-1.08-2.48-.79-4.01,3.78-20.09,8.9-39.82,15.08-59.31,10.69-33.76,24.01-66.26,44.63-95.36,6.69-9.44,14.02-18.36,22.01-26.74,7.24-7.6,15.53-14.04,23.34-20.99.54-.48,1.44-1.4,1.44-1.4,4.53,2.81,12.24,5.36,13.07,5.73,5.84,2.64,11.73,5.09,18.07,6.36,13.39,2.67,26.77,4.48,40.05-.31,3.6-1.3,6.99-1.01,10.66-.54,6.2.79,12.44.67,17.16-4.5-5.71,2.24-10.96,3.65-17.23,1.72Z"/>
      <path class="cls-7" d="M297.36,49.66c-.03.06-.07.12-.1.17.05-.04.1-.08.15-.12l-.05-.05Z"/>
      <polygon class="cls-10" points="252.45 8.03 252.49 8.07 252.63 7.93 252.45 8.03"/>
      <path class="cls-15" d="M28.04,301.56c-.51,13.1,1.21,25.91,4.31,38.54,4.47,17.33,12.28,29.51,15.03,33.45-12.15-16.78-17.44-28.41-19.23-32.87,0,0,0-.01,0-.02,0,0,0,0,0-.01-.53-1.31-.75-2-.75-2h.03c-2.45-7.06-3.85-14.25-4.98-21.65-1.79-11.76-1.47-23.61-.7-35.28.78-11.89,3.82-23.59,7.92-34.96,1.91-5.28,3.89-10.61,5.23-16.19.93-3.88,2.68-7.93,3.5-11.97,2.35-11.54,5.28-23.09,3.87-35.04-1.32-11.11-6.1-20.84-12.15-30.13-7.5-11.51-13.8-23.69-19.36-36.29-2.86-6.47-5.96-12.8-8.13-19.56h0s-.04-.12-.11-.35c-.01-.03-.02-.06-.03-.1-.02-.05-.03-.1-.04-.15-1.36-4.71-8.98-36.28,27.27-49.23,0,0,18.54-5.92,51.65,3.59,16.65,4.78,29.5,11.67,30.53,12.18,0,0-67.45-25.21-92.35-2.49,0,0-14.32,10.17-6.85,36.17.53,1.56,1.13,3.1,1.82,4.62,8.37,18.54,17.98,36.4,29.23,53.35,5.48,8.26,7.95,17.47,8.64,27.16,1.15,16.17-1.78,31.83-6.29,47.31-3.92,13.47-10.59,25.95-13.68,39.73-2.39,10.63-3.95,21.32-4.37,32.18ZM85.37,93.1c-4.1-.12-13.7-4.36-18.52-6.69,3.07,3.18,12.5,12.28,30.36,12.14,10.53-.08,20.88-2.91,30.05-8.1.69-.39,1.4-.8,2.12-1.22,12.53-7.34,25.49-13.7,39.34-18.17,24.11-7.42,33.97-.99,37.23,9.14,1,3.1,1.59,6.29,2.04,10.14,1.95-3.52,1.55-19.44-4.52-24.28-6.59-6.47-20.08-12.49-51.68.29-14.32,5.01-26.53,13.98-39.68,21.2-8.14,4.47-15.52,6.41-26.73,5.55ZM85.11,230.11h0c-9.14,20.61-17.18,41.63-22.87,63.48-3.91,15-7.33,27.27-7.46,51.31-.07.96-.03,1.59.12,2.2-.08,7.22.18,14.78,1.16,21.18,0,0,.1-19.3,3.43-41.02,2.84-25.24,12.44-48.33,22.56-71.28,3.49-7.91,7.6-15.5,11.47-23.21h0s7.16-13.91,14.63-28.02l-8.82-5.19s-7.37,13.28-14.22,30.55Z"/>
    </g>
    <g>
      <path class="cls-22" d="M340.31,232.39c19.26-5.29,31.35-17.65,31.35-32.67h0c0-10.48-5.55-19.42-16.05-25.85-10.57-6.47-25.48-9.9-43.12-9.9h-66.63v3.29h1c.5,0,12.13.12,12.13,10.58v136.41c0,10.46-11.63,10.58-12.13,10.58h-1v3.29h82.85c20.54,0,37.42-4.6,48.83-13.3,10.97-8.37,16.77-20.31,16.77-34.54,0-27-20.04-44.57-54-47.89ZM369.38,312.57c-8.47,8.14-22.16,12.27-40.68,12.27h-57.17v-157.58h40.95c29.82,0,45.59,11.22,45.59,32.46s-14.27,32.2-39.15,32.2v.02h-18.06v3.26h27.84c35,0,52.02,14.74,52.02,45.07,0,14.39-3.71,24.95-11.34,32.29Z"/>
      <path class="cls-1" d="M524.44,314.26v-82.1c0-22.87-22.53-38.83-54.79-38.83-19.6,0-39.63,9.71-48.71,23.62l-.34.52,1.94,3.23.86-1.4c7.69-12.43,24.21-19.86,44.19-19.86,22.18,0,44.56,10.91,44.56,35.29v4.15c-23.44.08-44.53,2.83-61.04,7.99-29.52,9.22-44.49,25.66-44.49,48.86,0,8.3,3.68,17.25,9.85,23.94,5.29,5.74,14.93,12.58,30.78,12.58,19.37,0,35.64-9.58,48.35-28.46,8.93-13.28,13.92-27.95,16.54-37.98v48.46c0,10.46-11.63,10.58-12.13,10.58h-1v3.29h38.55v-3.29h-1c-.5,0-12.13-.12-12.13-10.58ZM512.14,246.05c0,14.41-16.03,81.62-61.54,81.62-17.62,0-30.92-14.84-30.92-34.52,0-33.18,31.97-50.8,92.46-50.99v3.89Z"/>
      <path class="cls-11" d="M607.68,255.92c-25.36-6.4-49.32-12.44-49.32-31.75,0-15.97,18.31-27.57,43.53-27.57,28.9,0,38.97,15.89,45.64,26.4l.82,1.29,8.2-9.46-.7-.66c-15.2-14.23-32.35-20.86-53.96-20.86-37.93,0-51.7,22.3-51.7,37.29,0,24.79,27.52,31.34,54.14,37.68,25.1,5.98,48.82,11.63,48.82,31.55,0,16.87-20.58,29.11-48.93,29.11-30.46,0-40.43-15.74-47.03-26.16l-.97-1.53-8.2,9.46.7.66c14.16,13.26,34.39,20.86,55.51,20.86,39.24,0,57.11-20.53,57.11-39.61,0-23.19-27.27-30.06-53.64-36.71Z"/>
      <path class="cls-13" d="M764.32,306.34c-6.4,12.58-19.02,19.79-34.63,19.79-20.18,0-32.72-13.52-32.72-35.29v-89.6h40.92v-3.8h-40.92v-20.33h-2.69l-21.96,20.9v2.72h1c5.61,0,11.35,1.26,11.35,10.58v82.1c0,22.87,17.88,38.83,43.47,38.83,17.57,0,32.91-12.06,38.98-23.97l.33-.65-2.52-2.52-.62,1.23Z"/>
      <path class="cls-17" d="M841.86,193.32c-19.69,0-37.44,6.91-50,19.47-12.55,12.55-19.47,30.31-19.47,50s6.91,37.44,19.47,50c12.55,12.55,30.31,19.47,50,19.47s37.44-6.91,50-19.47c12.55-12.55,19.47-30.31,19.47-50s-6.91-37.44-19.47-50c-12.55-12.55-30.31-19.47-50-19.47ZM841.86,328.96c-33.21,0-56.4-27.21-56.4-66.18s23.19-66.18,56.4-66.18,56.4,27.21,56.4,66.18-23.19,66.18-56.4,66.18Z"/>
      <path class="cls-6" d="M986.2,255.92c-25.36-6.4-49.32-12.44-49.32-31.75,0-15.97,18.31-27.57,43.53-27.57,28.9,0,38.97,15.89,45.64,26.4l.82,1.29,8.2-9.46-.7-.66c-15.2-14.23-32.35-20.86-53.96-20.86-37.93,0-51.7,22.3-51.7,37.29,0,24.79,27.52,31.34,54.14,37.68,25.1,5.98,48.82,11.63,48.82,31.55,0,16.87-20.58,29.11-48.93,29.11-30.46,0-40.43-15.74-47.03-26.16l-.97-1.53-8.2,9.46.7.66c14.16,13.26,34.39,20.86,55.51,20.86,39.24,0,57.11-20.53,57.11-39.61,0-23.19-27.27-30.06-53.64-36.71Z"/>
    </g>
    <path class="cls-12" d="M316.15,378.2c-1.96,0-3.77-.32-5.42-.97s-3.09-1.55-4.31-2.71c-1.22-1.16-2.17-2.53-2.84-4.09-.67-1.57-1.01-3.29-1.01-5.15s.33-3.58,1.01-5.15c.67-1.57,1.62-2.93,2.84-4.09,1.22-1.16,2.66-2.07,4.31-2.71s3.45-.97,5.39-.97,3.76.32,5.41.97c1.64.65,3.07,1.55,4.29,2.71,1.22,1.16,2.17,2.53,2.84,4.09.67,1.57,1.01,3.29,1.01,5.15s-.33,3.59-1.01,5.17c-.67,1.58-1.62,2.94-2.84,4.09-1.22,1.15-2.65,2.05-4.29,2.69-1.64.65-3.43.97-5.37.97ZM316.12,374.1c1.27,0,2.44-.22,3.52-.65s2.01-1.05,2.8-1.85c.79-.8,1.41-1.74,1.85-2.8.44-1.07.66-2.25.66-3.54s-.22-2.47-.66-3.54c-.44-1.07-1.06-2-1.85-2.8-.79-.8-1.72-1.42-2.8-1.85-1.08-.43-2.25-.65-3.52-.65s-2.44.21-3.5.65c-1.07.43-2,1.05-2.8,1.85s-1.42,1.74-1.87,2.8-.66,2.24-.66,3.54.22,2.44.66,3.52c.44,1.08,1.06,2.02,1.85,2.82.79.8,1.72,1.42,2.8,1.85,1.08.43,2.25.65,3.52.65ZM343.23,377.84v-25.14h10.99c2.73,0,5.12.53,7.18,1.58,2.06,1.05,3.66,2.51,4.81,4.38,1.15,1.87,1.72,4.07,1.72,6.61s-.57,4.71-1.72,6.59c-1.15,1.88-2.75,3.35-4.81,4.4-2.06,1.05-4.45,1.58-7.18,1.58h-10.99ZM347.9,373.89h6.11c1.87,0,3.5-.36,4.88-1.08s2.46-1.72,3.21-3.02c.75-1.29,1.13-2.8,1.13-4.53s-.38-3.26-1.13-4.54c-.75-1.28-1.83-2.28-3.21-3-1.39-.72-3.02-1.08-4.88-1.08h-6.11v17.24ZM393.3,378.2c-1.96,0-3.77-.32-5.42-.97s-3.09-1.55-4.31-2.71c-1.22-1.16-2.17-2.53-2.84-4.09-.67-1.57-1-3.29-1-5.15s.33-3.58,1-5.15,1.62-2.93,2.84-4.09c1.22-1.16,2.66-2.07,4.31-2.71s3.45-.97,5.39-.97,3.77.32,5.41.97c1.64.65,3.07,1.55,4.29,2.71,1.22,1.16,2.17,2.53,2.84,4.09.67,1.57,1.01,3.29,1.01,5.15s-.34,3.59-1.01,5.17c-.67,1.58-1.62,2.94-2.84,4.09-1.22,1.15-2.65,2.05-4.29,2.69-1.64.65-3.43.97-5.37.97ZM393.27,374.1c1.27,0,2.44-.22,3.52-.65,1.08-.43,2.01-1.05,2.8-1.85.79-.8,1.41-1.74,1.85-2.8s.67-2.25.67-3.54-.22-2.47-.67-3.54-1.06-2-1.85-2.8c-.79-.8-1.72-1.42-2.8-1.85-1.08-.43-2.25-.65-3.52-.65s-2.44.21-3.5.65c-1.07.43-2,1.05-2.8,1.85-.8.8-1.42,1.74-1.87,2.8-.44,1.07-.66,2.24-.66,3.54s.22,2.44.66,3.52c.44,1.08,1.06,2.02,1.85,2.82.79.8,1.72,1.42,2.8,1.85,1.08.43,2.25.65,3.52.65ZM420.38,377.84v-25.14h3.84l15.77,19.36h-1.9v-19.36h4.63v25.14h-3.84l-15.77-19.36h1.9v19.36h-4.63ZM463.2,377.84v-21.19h-8.33v-3.95h21.33v3.95h-8.33v21.19h-4.67ZM499.76,378.2c-1.96,0-3.77-.32-5.42-.97s-3.09-1.55-4.31-2.71c-1.22-1.16-2.17-2.53-2.84-4.09-.67-1.57-1-3.29-1-5.15s.33-3.58,1-5.15,1.62-2.93,2.84-4.09c1.22-1.16,2.66-2.07,4.31-2.71s3.45-.97,5.39-.97,3.77.32,5.41.97c1.64.65,3.07,1.55,4.29,2.71s2.17,2.53,2.84,4.09c.67,1.57,1.01,3.29,1.01,5.15s-.34,3.59-1.01,5.17c-.67,1.58-1.62,2.94-2.84,4.09s-2.65,2.05-4.29,2.69c-1.64.65-3.43.97-5.37.97ZM499.72,374.1c1.27,0,2.44-.22,3.52-.65,1.08-.43,2.01-1.05,2.8-1.85.79-.8,1.41-1.74,1.85-2.8s.66-2.25.66-3.54-.22-2.47-.66-3.54-1.06-2-1.85-2.8c-.79-.8-1.72-1.42-2.8-1.85-1.08-.43-2.25-.65-3.52-.65s-2.44.21-3.5.65c-1.07.43-2,1.05-2.8,1.85-.8.8-1.42,1.74-1.87,2.8-.44,1.07-.66,2.24-.66,3.54s.22,2.44.66,3.52c.44,1.08,1.06,2.02,1.85,2.82.79.8,1.72,1.42,2.8,1.85,1.08.43,2.25.65,3.52.65ZM526.84,377.84v-25.14h4.67v21.19h13.15v3.95h-17.82ZM568.29,378.2c-1.96,0-3.77-.32-5.42-.97s-3.09-1.55-4.31-2.71c-1.22-1.16-2.17-2.53-2.84-4.09-.67-1.57-1.01-3.29-1.01-5.15s.33-3.58,1.01-5.15c.67-1.57,1.62-2.93,2.84-4.09,1.22-1.16,2.66-2.07,4.31-2.71s3.45-.97,5.39-.97,3.76.32,5.41.97c1.64.65,3.07,1.55,4.29,2.71,1.22,1.16,2.17,2.53,2.84,4.09.67,1.57,1.01,3.29,1.01,5.15s-.34,3.59-1.01,5.17c-.67,1.58-1.62,2.94-2.84,4.09-1.22,1.15-2.65,2.05-4.29,2.69-1.64.65-3.43.97-5.37.97ZM568.25,374.1c1.27,0,2.44-.22,3.52-.65,1.08-.43,2.01-1.05,2.8-1.85.79-.8,1.41-1.74,1.85-2.8.44-1.07.66-2.25.66-3.54s-.22-2.47-.66-3.54c-.44-1.07-1.06-2-1.85-2.8-.79-.8-1.72-1.42-2.8-1.85-1.08-.43-2.25-.65-3.52-.65s-2.44.21-3.5.65c-1.07.43-2,1.05-2.8,1.85s-1.42,1.74-1.87,2.8c-.44,1.07-.67,2.24-.67,3.54s.22,2.44.67,3.52c.44,1.08,1.06,2.02,1.85,2.82.79.8,1.72,1.42,2.8,1.85,1.08.43,2.25.65,3.52.65ZM607.12,378.2c-1.96,0-3.77-.32-5.41-.95-1.64-.63-3.07-1.53-4.29-2.69-1.22-1.16-2.17-2.53-2.84-4.11-.67-1.58-1.01-3.3-1.01-5.17s.33-3.59,1.01-5.17c.67-1.58,1.62-2.95,2.86-4.11,1.23-1.16,2.68-2.06,4.33-2.69s3.46-.95,5.42-.95c2.13,0,4.05.35,5.76,1.04s3.16,1.71,4.33,3.05l-2.95,2.87c-.98-.98-2.04-1.71-3.18-2.17-1.14-.47-2.39-.7-3.75-.7s-2.54.21-3.66.65c-1.13.43-2.1,1.04-2.91,1.83-.81.79-1.44,1.72-1.89,2.8-.44,1.08-.67,2.26-.67,3.56s.22,2.44.67,3.52c.44,1.08,1.07,2.02,1.89,2.82.81.8,1.77,1.42,2.87,1.85,1.1.43,2.32.65,3.66.65,1.25,0,2.45-.2,3.61-.59,1.16-.39,2.27-1.06,3.32-1.99l2.66,3.48c-1.32,1.05-2.84,1.85-4.58,2.39-1.74.54-3.49.81-5.26.81ZM616.96,375l-4.42-.61v-9.41h4.42v10.02ZM631.72,377.84v-25.14h4.67v25.14h-4.67ZM648.24,377.84l11.31-25.14h4.6l11.35,25.14h-4.88l-9.73-22.66h1.87l-9.7,22.66h-4.81ZM653.45,372.02l1.26-3.66h13.58l1.26,3.66h-16.09ZM705.85,377.84v-25.14h4.67v25.14h-4.67ZM725.93,377.84v-25.14h3.84l15.77,19.36h-1.9v-19.36h4.63v25.14h-3.84l-15.77-19.36h1.9v19.36h-4.63ZM768.74,377.84v-21.19h-8.33v-3.95h21.33v3.95h-8.33v21.19h-4.67ZM793.88,377.84v-25.14h18.35v3.92h-13.68v17.31h14.19v3.92h-18.86ZM798.19,366.99v-3.84h12.5v3.84h-12.5ZM838.31,378.2c-1.96,0-3.77-.32-5.41-.95-1.64-.63-3.07-1.53-4.29-2.69-1.22-1.16-2.17-2.53-2.84-4.11-.67-1.58-1.01-3.3-1.01-5.17s.33-3.59,1.01-5.17c.67-1.58,1.62-2.95,2.86-4.11,1.23-1.16,2.68-2.06,4.33-2.69s3.46-.95,5.42-.95c2.13,0,4.05.35,5.76,1.04s3.16,1.71,4.33,3.05l-2.95,2.87c-.98-.98-2.04-1.71-3.18-2.17-1.14-.47-2.39-.7-3.75-.7s-2.54.21-3.66.65c-1.13.43-2.1,1.04-2.91,1.83-.81.79-1.44,1.72-1.89,2.8-.44,1.08-.67,2.26-.67,3.56s.22,2.44.67,3.52c.44,1.08,1.07,2.02,1.89,2.82.81.8,1.77,1.42,2.87,1.85,1.1.43,2.32.65,3.66.65,1.25,0,2.45-.2,3.61-.59,1.16-.39,2.27-1.06,3.32-1.99l2.66,3.48c-1.32,1.05-2.84,1.85-4.58,2.39-1.74.54-3.49.81-5.26.81ZM848.15,375l-4.42-.61v-9.41h4.42v10.02ZM862.91,377.84v-25.14h10.31c3.35,0,5.98.79,7.88,2.37,1.9,1.58,2.86,3.77,2.86,6.57,0,1.84-.43,3.43-1.29,4.76-.86,1.33-2.09,2.35-3.68,3.05-1.59.71-3.5,1.06-5.73,1.06h-7.76l2.08-2.12v9.45h-4.67ZM867.58,368.89l-2.08-2.23h7.54c2.06,0,3.61-.44,4.65-1.33,1.04-.89,1.56-2.12,1.56-3.7s-.52-2.84-1.56-3.7c-1.04-.86-2.59-1.29-4.65-1.29h-7.54l2.08-2.3v14.55ZM879.36,377.84l-6.36-9.12h4.99l6.39,9.12h-5.03ZM894.23,377.84l11.31-25.14h4.6l11.35,25.14h-4.88l-9.73-22.66h1.87l-9.7,22.66h-4.81ZM899.44,372.02l1.26-3.66h13.58l1.26,3.66h-16.09ZM933.31,377.84v-25.14h10.99c2.73,0,5.12.53,7.18,1.58s3.66,2.51,4.81,4.38c1.15,1.87,1.72,4.07,1.72,6.61s-.57,4.71-1.72,6.59c-1.15,1.88-2.75,3.35-4.81,4.4s-4.45,1.58-7.18,1.58h-10.99ZM937.98,373.89h6.11c1.87,0,3.5-.36,4.88-1.08,1.39-.72,2.46-1.72,3.21-3.02.75-1.29,1.13-2.8,1.13-4.53s-.38-3.26-1.13-4.54c-.75-1.28-1.83-2.28-3.21-3-1.39-.72-3.02-1.08-4.88-1.08h-6.11v17.24ZM967.68,377.84l11.31-25.14h4.6l11.35,25.14h-4.88l-9.73-22.66h1.87l-9.7,22.66h-4.81ZM972.89,372.02l1.26-3.66h13.58l1.26,3.66h-16.09Z"/>
  </g>
  <g>
    <g>
      <path class="cls-5" d="M251.61,6.95s-.02.05-.03.08c.02-.01.05-.03.07-.04l-.04-.04Z"/>
      <path class="cls-19" d="M317.7,111.58c1.85-2.36,4.51-3.39,7.7-6.3-3.52,1.58-7.69,3.15-10.96,4.62.35-5.99,4.03-9.21,7.5-13.03-5.75,1.63-7.88,6.45-10.02,11.29-.57,1.29-.52,2.98-2.5,3.34-3.98.73-7.91,2.09-11.91,2.32-16.33.94-32.1-1.89-47.31-7.87-.58-.23-6.13-2.34-9.22-4.45,34.36.86,57.53-9.82,57.53-9.82h-.01c3.74-1.56,7.21-3.78,10.59-6.09,4.47-3.05,7.85-6.82,12.93-8.49,3.37-1.1,6.59-2.62,9.44-4.72,2.51-1.85,4.64-4.03,4.7-6.13,0,0-7.98,7.15-13.34,7.26.33-1.73,3.88-7.36,3.79-7.46-2.14.79-5.25,6.41-7.81,6.9-1.53-4.99.8-11.2,4.49-14.99,0,0-7,4.46-7.7,11.45-.5,4.66-.04,7.46-.04,7.46,0,0-5.56,4.94-9.6,7.37-.99.6-1.96,1.23-2.93,1.86-2.94,1.9-6.11,3.34-9.27,4.82-26.95,8.07-46.03,8.17-54.49,7.61,6.44-.89,16.6-4.95,18.33-5.73.25-.11.52-.24.82-.38,12.21-5.67,22.73-13.69,32.09-23.28,1.57-1.61,2.99-2.7,5.5-2.72,2.81-.03,9.19-3.74,10.64-6.67-3.04,1.44-7.53,4.44-9.67,3.28-.1-1.3,3.95-7.83,3.95-7.83,0,0-5.94,5.53-7.59,5.14-1.27-4.5,1.51-8.84,3.08-11.58-3.98,3.18-5.61,7.52-5.18,12.42.22,2.54-.6,3.94-2.33,5.47-10.51,9.32-21.55,17.85-34.32,23.96-.43.21-11.29,4.13-16.92,6.18,4.91-4.18,11.15-10.1,11.7-10.58,2.12-1.88,4.43-3.58,6.39-5.61,11.46-11.89,21.2-25.04,28.13-40.1,1.07-2.32,2.51-3.51,4.83-4.36,3.65-1.33,9.25-4.57,10.34-9.1-2.49,2.45-6.53,5.65-10.55,5.4.93-3.62,3.07-10.27,3.07-10.27-1.75,1.25-3.88,7.26-6.5,8.95-2.31-3.13-1.93-8.69-2.22-12.79-2.14,4.42-1.73,10.57,0,14.19.8,1.68.79,2.92-.17,4.52-6.52,10.83-13.57,21.28-21.51,31.13-4.42,5.48-9.04,10.75-13.99,15.75-.5.5-9.04,7.8-13.29,12.71.64-3.51,1.52-8.82,3.11-14.61,4.11-11.71,8.12-20.65,14.24-31.45,1.6-2.82,3.45-5.23,7.57-5.77,4.74-.63,8.75-3.63,10.9-8.32,0,0-6.6,4.99-11.29,4.59,1.29-2.98,3.23-5.33,4.44-8.28-2.31,2.49-5.82,5.98-6.72,5.71-.96-.29-1.12-1.37-1.3-2.31-.53-2.76.9-7.94.85-8-2.67,2.88-3.79,6.22-2.51,10.08.87,2.63.53,4.78-1.32,7.06-3.85,4.75-6.68,10.2-9.5,15.61-4.44,8.54-7.29,17.67-9.52,27.01-.5,2.28-.81,4.25-1,5.94-.38-7.83-1.9-22.88-2.07-27.19-.54-13.45,1.82-25.89,4.06-39.11.78-4.61,2.3-8.58,7.67-10.64,4.37-1.67,8.42-4.86,10.06-9.9-4.61,2.45-8.14,6.88-13.88,7.82-.12-3.9,2.4-6.92,2.51-11.51-2.53,4.99-4.59,9.06-6.78,13.39-3.24-5.42-3.49-11.05-3.58-16.72-2.31,6.2-1.8,12.23,1.1,18.03.93,1.85,1.02,3.46.42,5.39-2.1,6.75-3.04,14.02-3.75,21.15-1.26,12.53-1.36,24.39.54,36.75.1.68.55,6.24,1.25,10.91-2.88-4.84-6.05-9.62-6.32-10.08-9.72-16.6-14.74-34.51-15.45-53.7-.09-2.34.56-4.01,2.32-5.69,3.32-3.17,5.6-7.07,6.81-12.39-3.39,2.87-4.74,6.54-8.6,8.92v-10.68c-1.97,2.23-2.81,4.6-3.01,7.21-.07.9-.18,2.14-1.28,2.23-.58.05-1.34-.79-1.84-1.38-2.26-2.68-3.66-5.9-5.58-9.83-.4,6.07,1.53,10.45,5.02,13.93,2.28,2.27,2.84,4.59,2.71,7.6-.87,20.6,5.11,39.27,15.89,56.65,1.08,1.74,7.91,11.75,11.61,15.89-3.27,2.4-6.76,4.51-9.88,7.09-19.4,16-34.68,35.52-47.52,56.96-25.23,42.14-39.25,88.31-48.3,136.22-.55,2.9.28,6.92-1.99,8.5-5.67,3.94-5.37,9.63-5.95,14.12-.07,6.43.65,11.72,1.66,16.89,1.06,5.43,1.67,11.03,3.92,16.18.61,1.4,1.2,3.48,3.12,3.19,1.71-.25,2.23-2.21,2.78-3.75.18-.5.14-1.08.26-1.61,1.08-4.91.99-10.05,2.16-14.86,1.63-6.7,2.21-13.36,1.9-20.16-.15-3.33-.87-6.54-3.65-8.76-1.51-1.21-1.08-2.48-.79-4.01,3.78-20.09,8.9-39.82,15.08-59.31,10.69-33.76,24.01-66.26,44.63-95.36,6.69-9.44,14.02-18.36,22.01-26.74,7.24-7.6,15.53-14.04,23.34-20.99.54-.48,1.44-1.4,1.44-1.4,4.53,2.81,12.24,5.36,13.07,5.73,5.84,2.64,11.73,5.09,18.07,6.36,13.39,2.67,26.77,4.48,40.05-.31,3.6-1.3,6.99-1.01,10.66-.54,6.2.79,12.44.67,17.16-4.5-5.71,2.24-10.96,3.65-17.23,1.72Z"/>
      <path class="cls-3" d="M296.52,48.58c-.03.06-.07.12-.1.17.05-.04.1-.08.15-.12l-.05-.05Z"/>
      <polygon class="cls-2" points="251.61 6.95 251.65 6.99 251.79 6.85 251.61 6.95"/>
      <path class="cls-18" d="M27.2,300.48c-.51,13.1,1.21,25.91,4.31,38.54,4.47,17.33,12.28,29.51,15.03,33.45-12.15-16.78-17.44-28.41-19.23-32.87,0,0,0-.01,0-.02,0,0,0,0,0-.01-.53-1.31-.75-2-.75-2h.03c-2.45-7.06-3.85-14.25-4.98-21.65-1.79-11.76-1.47-23.61-.7-35.28.78-11.89,3.82-23.59,7.92-34.96,1.91-5.28,3.89-10.61,5.23-16.19.93-3.88,2.68-7.93,3.5-11.97,2.35-11.54,5.28-23.09,3.87-35.04-1.32-11.11-6.1-20.84-12.15-30.13-7.5-11.51-13.8-23.69-19.36-36.29-2.86-6.47-5.96-12.8-8.13-19.56h0s-.04-.12-.11-.35c-.01-.03-.02-.06-.03-.1-.02-.05-.03-.1-.04-.15-1.36-4.71-8.98-36.28,27.27-49.23,0,0,18.54-5.92,51.65,3.59,16.65,4.78,29.5,11.67,30.53,12.18,0,0-67.45-25.21-92.35-2.49,0,0-14.32,10.17-6.85,36.17.53,1.56,1.13,3.1,1.82,4.62,8.37,18.54,17.98,36.4,29.23,53.35,5.48,8.26,7.95,17.47,8.64,27.16,1.15,16.17-1.78,31.83-6.29,47.31-3.92,13.47-10.59,25.95-13.68,39.73-2.39,10.63-3.95,21.32-4.37,32.18ZM84.53,92.02c-4.1-.12-13.7-4.36-18.52-6.69,3.07,3.18,12.5,12.28,30.36,12.14,10.53-.08,20.88-2.91,30.05-8.1.69-.39,1.4-.8,2.12-1.22,12.53-7.34,25.49-13.7,39.34-18.17,24.11-7.42,33.97-.99,37.23,9.14,1,3.1,1.59,6.29,2.04,10.14,1.95-3.52,1.55-19.44-4.52-24.28-6.59-6.47-20.08-12.49-51.68.29-14.32,5.01-26.53,13.98-39.68,21.2-8.14,4.47-15.52,6.41-26.73,5.55ZM84.27,229.03h0c-9.14,20.61-17.18,41.63-22.87,63.48-3.91,15-7.33,27.27-7.46,51.31-.07.96-.03,1.59.12,2.2-.08,7.22.18,14.78,1.16,21.18,0,0,.1-19.3,3.43-41.02,2.84-25.24,12.44-48.33,22.56-71.28,3.49-7.91,7.6-15.5,11.47-23.21h0s7.16-13.91,14.63-28.02l-8.82-5.19s-7.37,13.28-14.22,30.55Z"/>
    </g>
    <g>
      <path class="cls-16" d="M339.47,231.31c19.26-5.29,31.35-17.65,31.35-32.67h0c0-10.48-5.55-19.42-16.05-25.85-10.57-6.47-25.48-9.9-43.12-9.9h-66.63v3.29h1c.5,0,12.13.12,12.13,10.58v136.41c0,10.46-11.63,10.58-12.13,10.58h-1v3.29h82.85c20.54,0,37.42-4.6,48.83-13.3,10.97-8.37,16.77-20.31,16.77-34.54,0-27-20.04-44.57-54-47.89ZM368.54,311.49c-8.47,8.14-22.16,12.27-40.68,12.27h-57.17v-157.58h40.95c29.82,0,45.59,11.22,45.59,32.46s-14.27,32.2-39.15,32.2v.02h-18.06v3.26h27.84c35,0,52.02,14.74,52.02,45.07,0,14.39-3.71,24.95-11.34,32.29Z"/>
      <path class="cls-24" d="M523.6,313.18v-82.1c0-22.87-22.53-38.83-54.79-38.83-19.6,0-39.63,9.71-48.71,23.62l-.34.52,1.94,3.23.86-1.4c7.69-12.43,24.21-19.86,44.19-19.86,22.18,0,44.56,10.91,44.56,35.29v4.15c-23.44.08-44.53,2.83-61.04,7.99-29.52,9.22-44.49,25.66-44.49,48.86,0,8.3,3.68,17.25,9.85,23.94,5.29,5.74,14.93,12.58,30.78,12.58,19.37,0,35.64-9.58,48.35-28.46,8.93-13.28,13.92-27.95,16.54-37.98v48.46c0,10.46-11.63,10.58-12.13,10.58h-1v3.29h38.55v-3.29h-1c-.5,0-12.13-.12-12.13-10.58ZM511.3,244.97c0,14.41-16.03,81.62-61.54,81.62-17.62,0-30.92-14.84-30.92-34.52,0-33.18,31.97-50.8,92.46-50.99v3.89Z"/>
      <path class="cls-21" d="M606.84,254.84c-25.36-6.4-49.32-12.44-49.32-31.75,0-15.97,18.31-27.57,43.53-27.57,28.9,0,38.97,15.89,45.64,26.4l.82,1.29,8.2-9.46-.7-.66c-15.2-14.23-32.35-20.86-53.96-20.86-37.93,0-51.7,22.3-51.7,37.29,0,24.79,27.52,31.34,54.14,37.68,25.1,5.98,48.82,11.63,48.82,31.55,0,16.87-20.58,29.11-48.93,29.11-30.46,0-40.43-15.74-47.03-26.16l-.97-1.53-8.2,9.46.7.66c14.16,13.26,34.39,20.86,55.51,20.86,39.24,0,57.11-20.53,57.11-39.61,0-23.19-27.27-30.06-53.64-36.71Z"/>
      <path class="cls-8" d="M763.48,305.26c-6.4,12.58-19.02,19.79-34.63,19.79-20.18,0-32.72-13.52-32.72-35.29v-89.6h40.92v-3.8h-40.92v-20.33h-2.69l-21.96,20.9v2.72h1c5.61,0,11.35,1.26,11.35,10.58v82.1c0,22.87,17.88,38.83,43.47,38.83,17.57,0,32.91-12.06,38.98-23.97l.33-.65-2.52-2.52-.62,1.23Z"/>
      <path class="cls-4" d="M841.02,192.24c-19.69,0-37.44,6.91-50,19.47-12.55,12.55-19.47,30.31-19.47,50s6.91,37.44,19.47,50c12.55,12.55,30.31,19.47,50,19.47s37.44-6.91,50-19.47c12.55-12.55,19.47-30.31,19.47-50s-6.91-37.44-19.47-50c-12.55-12.55-30.31-19.47-50-19.47ZM841.02,327.88c-33.21,0-56.4-27.21-56.4-66.18s23.19-66.18,56.4-66.18,56.4,27.21,56.4,66.18-23.19,66.18-56.4,66.18Z"/>
      <path class="cls-14" d="M985.36,254.84c-25.36-6.4-49.32-12.44-49.32-31.75,0-15.97,18.31-27.57,43.53-27.57,28.9,0,38.97,15.89,45.64,26.4l.82,1.29,8.2-9.46-.7-.66c-15.2-14.23-32.35-20.86-53.96-20.86-37.93,0-51.7,22.3-51.7,37.29,0,24.79,27.52,31.34,54.14,37.68,25.1,5.98,48.82,11.63,48.82,31.55,0,16.87-20.58,29.11-48.93,29.11-30.46,0-40.43-15.74-47.03-26.16l-.97-1.53-8.2,9.46.7.66c14.16,13.26,34.39,20.86,55.51,20.86,39.24,0,57.11-20.53,57.11-39.61,0-23.19-27.27-30.06-53.64-36.71Z"/>
    </g>
    <path class="cls-20" d="M315.31,377.12c-1.96,0-3.77-.32-5.42-.97s-3.09-1.55-4.31-2.71c-1.22-1.16-2.17-2.53-2.84-4.09-.67-1.57-1.01-3.29-1.01-5.15s.33-3.58,1.01-5.15c.67-1.57,1.62-2.93,2.84-4.09,1.22-1.16,2.66-2.07,4.31-2.71s3.45-.97,5.39-.97,3.76.32,5.41.97c1.64.65,3.07,1.55,4.29,2.71,1.22,1.16,2.17,2.53,2.84,4.09.67,1.57,1.01,3.29,1.01,5.15s-.33,3.59-1.01,5.17c-.67,1.58-1.62,2.94-2.84,4.09-1.22,1.15-2.65,2.05-4.29,2.69-1.64.65-3.43.97-5.37.97ZM315.28,373.02c1.27,0,2.44-.22,3.52-.65s2.01-1.05,2.8-1.85c.79-.8,1.41-1.74,1.85-2.8.44-1.07.66-2.25.66-3.54s-.22-2.47-.66-3.54c-.44-1.07-1.06-2-1.85-2.8-.79-.8-1.72-1.42-2.8-1.85-1.08-.43-2.25-.65-3.52-.65s-2.44.21-3.5.65c-1.07.43-2,1.05-2.8,1.85s-1.42,1.74-1.87,2.8-.66,2.24-.66,3.54.22,2.44.66,3.52c.44,1.08,1.06,2.02,1.85,2.82.79.8,1.72,1.42,2.8,1.85,1.08.43,2.25.65,3.52.65ZM342.39,376.76v-25.14h10.99c2.73,0,5.12.53,7.18,1.58,2.06,1.05,3.66,2.51,4.81,4.38,1.15,1.87,1.72,4.07,1.72,6.61s-.57,4.71-1.72,6.59c-1.15,1.88-2.75,3.35-4.81,4.4-2.06,1.05-4.45,1.58-7.18,1.58h-10.99ZM347.06,372.81h6.11c1.87,0,3.5-.36,4.88-1.08s2.46-1.72,3.21-3.02c.75-1.29,1.13-2.8,1.13-4.53s-.38-3.26-1.13-4.54c-.75-1.28-1.83-2.28-3.21-3-1.39-.72-3.02-1.08-4.88-1.08h-6.11v17.24ZM392.46,377.12c-1.96,0-3.77-.32-5.42-.97s-3.09-1.55-4.31-2.71c-1.22-1.16-2.17-2.53-2.84-4.09-.67-1.57-1-3.29-1-5.15s.33-3.58,1-5.15,1.62-2.93,2.84-4.09c1.22-1.16,2.66-2.07,4.31-2.71s3.45-.97,5.39-.97,3.77.32,5.41.97c1.64.65,3.07,1.55,4.29,2.71,1.22,1.16,2.17,2.53,2.84,4.09.67,1.57,1.01,3.29,1.01,5.15s-.34,3.59-1.01,5.17c-.67,1.58-1.62,2.94-2.84,4.09-1.22,1.15-2.65,2.05-4.29,2.69-1.64.65-3.43.97-5.37.97ZM392.43,373.02c1.27,0,2.44-.22,3.52-.65,1.08-.43,2.01-1.05,2.8-1.85.79-.8,1.41-1.74,1.85-2.8s.67-2.25.67-3.54-.22-2.47-.67-3.54-1.06-2-1.85-2.8c-.79-.8-1.72-1.42-2.8-1.85-1.08-.43-2.25-.65-3.52-.65s-2.44.21-3.5.65c-1.07.43-2,1.05-2.8,1.85-.8.8-1.42,1.74-1.87,2.8-.44,1.07-.66,2.24-.66,3.54s.22,2.44.66,3.52c.44,1.08,1.06,2.02,1.85,2.82.79.8,1.72,1.42,2.8,1.85,1.08.43,2.25.65,3.52.65ZM419.54,376.76v-25.14h3.84l15.77,19.36h-1.9v-19.36h4.63v25.14h-3.84l-15.77-19.36h1.9v19.36h-4.63ZM462.36,376.76v-21.19h-8.33v-3.95h21.33v3.95h-8.33v21.19h-4.67ZM498.92,377.12c-1.96,0-3.77-.32-5.42-.97s-3.09-1.55-4.31-2.71c-1.22-1.16-2.17-2.53-2.84-4.09-.67-1.57-1-3.29-1-5.15s.33-3.58,1-5.15,1.62-2.93,2.84-4.09c1.22-1.16,2.66-2.07,4.31-2.71s3.45-.97,5.39-.97,3.77.32,5.41.97c1.64.65,3.07,1.55,4.29,2.71s2.17,2.53,2.84,4.09c.67,1.57,1.01,3.29,1.01,5.15s-.34,3.59-1.01,5.17c-.67,1.58-1.62,2.94-2.84,4.09s-2.65,2.05-4.29,2.69c-1.64.65-3.43.97-5.37.97ZM498.88,373.02c1.27,0,2.44-.22,3.52-.65,1.08-.43,2.01-1.05,2.8-1.85.79-.8,1.41-1.74,1.85-2.8s.66-2.25.66-3.54-.22-2.47-.66-3.54-1.06-2-1.85-2.8c-.79-.8-1.72-1.42-2.8-1.85-1.08-.43-2.25-.65-3.52-.65s-2.44.21-3.5.65c-1.07.43-2,1.05-2.8,1.85-.8.8-1.42,1.74-1.87,2.8-.44,1.07-.66,2.24-.66,3.54s.22,2.44.66,3.52c.44,1.08,1.06,2.02,1.85,2.82.79.8,1.72,1.42,2.8,1.85,1.08.43,2.25.65,3.52.65ZM526,376.76v-25.14h4.67v21.19h13.15v3.95h-17.82ZM567.45,377.12c-1.96,0-3.77-.32-5.42-.97s-3.09-1.55-4.31-2.71c-1.22-1.16-2.17-2.53-2.84-4.09-.67-1.57-1.01-3.29-1.01-5.15s.33-3.58,1.01-5.15c.67-1.57,1.62-2.93,2.84-4.09,1.22-1.16,2.66-2.07,4.31-2.71s3.45-.97,5.39-.97,3.76.32,5.41.97c1.64.65,3.07,1.55,4.29,2.71,1.22,1.16,2.17,2.53,2.84,4.09.67,1.57,1.01,3.29,1.01,5.15s-.34,3.59-1.01,5.17c-.67,1.58-1.62,2.94-2.84,4.09-1.22,1.15-2.65,2.05-4.29,2.69-1.64.65-3.43.97-5.37.97ZM567.41,373.02c1.27,0,2.44-.22,3.52-.65,1.08-.43,2.01-1.05,2.8-1.85.79-.8,1.41-1.74,1.85-2.8.44-1.07.66-2.25.66-3.54s-.22-2.47-.66-3.54c-.44-1.07-1.06-2-1.85-2.8-.79-.8-1.72-1.42-2.8-1.85-1.08-.43-2.25-.65-3.52-.65s-2.44.21-3.5.65c-1.07.43-2,1.05-2.8,1.85s-1.42,1.74-1.87,2.8c-.44,1.07-.67,2.24-.67,3.54s.22,2.44.67,3.52c.44,1.08,1.06,2.02,1.85,2.82.79.8,1.72,1.42,2.8,1.85,1.08.43,2.25.65,3.52.65ZM606.28,377.12c-1.96,0-3.77-.32-5.41-.95-1.64-.63-3.07-1.53-4.29-2.69-1.22-1.16-2.17-2.53-2.84-4.11-.67-1.58-1.01-3.3-1.01-5.17s.33-3.59,1.01-5.17c.67-1.58,1.62-2.95,2.86-4.11,1.23-1.16,2.68-2.06,4.33-2.69s3.46-.95,5.42-.95c2.13,0,4.05.35,5.76,1.04s3.16,1.71,4.33,3.05l-2.95,2.87c-.98-.98-2.04-1.71-3.18-2.17-1.14-.47-2.39-.7-3.75-.7s-2.54.21-3.66.65c-1.13.43-2.1,1.04-2.91,1.83-.81.79-1.44,1.72-1.89,2.8-.44,1.08-.67,2.26-.67,3.56s.22,2.44.67,3.52c.44,1.08,1.07,2.02,1.89,2.82.81.8,1.77,1.42,2.87,1.85,1.1.43,2.32.65,3.66.65,1.25,0,2.45-.2,3.61-.59,1.16-.39,2.27-1.06,3.32-1.99l2.66,3.48c-1.32,1.05-2.84,1.85-4.58,2.39-1.74.54-3.49.81-5.26.81ZM616.12,373.92l-4.42-.61v-9.41h4.42v10.02ZM630.88,376.76v-25.14h4.67v25.14h-4.67ZM647.4,376.76l11.31-25.14h4.6l11.35,25.14h-4.88l-9.73-22.66h1.87l-9.7,22.66h-4.81ZM652.61,370.94l1.26-3.66h13.58l1.26,3.66h-16.09ZM705.01,376.76v-25.14h4.67v25.14h-4.67ZM725.09,376.76v-25.14h3.84l15.77,19.36h-1.9v-19.36h4.63v25.14h-3.84l-15.77-19.36h1.9v19.36h-4.63ZM767.9,376.76v-21.19h-8.33v-3.95h21.33v3.95h-8.33v21.19h-4.67ZM793.04,376.76v-25.14h18.35v3.92h-13.68v17.31h14.19v3.92h-18.86ZM797.35,365.91v-3.84h12.5v3.84h-12.5ZM837.47,377.12c-1.96,0-3.77-.32-5.41-.95-1.64-.63-3.07-1.53-4.29-2.69-1.22-1.16-2.17-2.53-2.84-4.11-.67-1.58-1.01-3.3-1.01-5.17s.33-3.59,1.01-5.17c.67-1.58,1.62-2.95,2.86-4.11,1.23-1.16,2.68-2.06,4.33-2.69s3.46-.95,5.42-.95c2.13,0,4.05.35,5.76,1.04s3.16,1.71,4.33,3.05l-2.95,2.87c-.98-.98-2.04-1.71-3.18-2.17-1.14-.47-2.39-.7-3.75-.7s-2.54.21-3.66.65c-1.13.43-2.1,1.04-2.91,1.83-.81.79-1.44,1.72-1.89,2.8-.44,1.08-.67,2.26-.67,3.56s.22,2.44.67,3.52c.44,1.08,1.07,2.02,1.89,2.82.81.8,1.77,1.42,2.87,1.85,1.1.43,2.32.65,3.66.65,1.25,0,2.45-.2,3.61-.59,1.16-.39,2.27-1.06,3.32-1.99l2.66,3.48c-1.32,1.05-2.84,1.85-4.58,2.39-1.74.54-3.49.81-5.26.81ZM847.31,373.92l-4.42-.61v-9.41h4.42v10.02ZM862.07,376.76v-25.14h10.31c3.35,0,5.98.79,7.88,2.37,1.9,1.58,2.86,3.77,2.86,6.57,0,1.84-.43,3.43-1.29,4.76-.86,1.33-2.09,2.35-3.68,3.05-1.59.71-3.5,1.06-5.73,1.06h-7.76l2.08-2.12v9.45h-4.67ZM866.74,367.81l-2.08-2.23h7.54c2.06,0,3.61-.44,4.65-1.33,1.04-.89,1.56-2.12,1.56-3.7s-.52-2.84-1.56-3.7c-1.04-.86-2.59-1.29-4.65-1.29h-7.54l2.08-2.3v14.55ZM878.52,376.76l-6.36-9.12h4.99l6.39,9.12h-5.03ZM893.39,376.76l11.31-25.14h4.6l11.35,25.14h-4.88l-9.73-22.66h1.87l-9.7,22.66h-4.81ZM898.6,370.94l1.26-3.66h13.58l1.26,3.66h-16.09ZM932.47,376.76v-25.14h10.99c2.73,0,5.12.53,7.18,1.58s3.66,2.51,4.81,4.38c1.15,1.87,1.72,4.07,1.72,6.61s-.57,4.71-1.72,6.59c-1.15,1.88-2.75,3.35-4.81,4.4s-4.45,1.58-7.18,1.58h-10.99ZM937.14,372.81h6.11c1.87,0,3.5-.36,4.88-1.08,1.39-.72,2.46-1.72,3.21-3.02.75-1.29,1.13-2.8,1.13-4.53s-.38-3.26-1.13-4.54c-.75-1.28-1.83-2.28-3.21-3-1.39-.72-3.02-1.08-4.88-1.08h-6.11v17.24ZM966.84,376.76l11.31-25.14h4.6l11.35,25.14h-4.88l-9.73-22.66h1.87l-9.7,22.66h-4.81ZM972.05,370.94l1.26-3.66h13.58l1.26,3.66h-16.09Z"/>
  </g>
</svg>